<svg id="Capa_1" enable-background="new 0 0 512 512" height="512" viewBox="0 0 512 512" width="512" xmlns="http://www.w3.org/2000/svg"><g><path d="m412.22 512c-10.886 0-21.72-2.703-31.331-7.815l-82.786-44.04c-67.359-35.833-147.784-35.827-215.136.017l-35.978 19.146-14.094-26.483 35.978-19.146c76.176-40.538 167.136-40.545 243.319-.019l82.785 44.039c5.289 2.813 11.252 4.301 17.242 4.301 18.088 0 29.382-11.708 33.92-22.665 4.539-10.957 4.831-27.221-7.958-40.011l-80.89-80.889 21.213-21.213 80.89 80.889c19.442 19.442 24.984 47.301 14.462 72.704-10.522 25.404-34.14 41.185-61.636 41.185z" fill="#335373"/><path d="m198.355 27.056c-35.674-35.664-94.067-36.168-130.297-.931-.316.307-.623.621-.933.931l65.615 93.899z" fill="#17294d"/><path d="m67.125 27.056c-36.239 36.241-36.246 94.994-.005 131.235l79.762-51.478z" fill="#335373"/><path d="m198.355 27.056-65.615 65.615 49.215 77.499 43.398-71.683c1.585-25.397-7.217-51.322-26.419-70.858-.191-.194-.387-.381-.579-.573z" fill="#335373"/><path d="m132.74 92.671-65.62 65.62c19.601 19.601 45.788 28.594 71.437 26.993l57.54-29.256z" fill="#5c7a99"/><path d="m203.168 191.383 41.993-70.277-19.808-22.618-43.398 43.398z" fill="#b9c9d9"/><path d="m181.955 141.886-43.398 43.398 22.618 19.808 56.135-27.851z" fill="#e6ecf2"/><path d="m247.575 235.79 39.051-67.335-41.465-47.349-41.993 41.993z" fill="#e6ecf2"/><path d="m203.168 163.099-41.993 41.993 47.349 41.465 53.193-24.909z" fill="#fff5f5"/><path d="m347.336 335.552 49.498 21.213 29.162-29.162-19.808-22.619z" fill="#7d98b3"/><path d="m345.053 366.119 22.619 19.808 29.162-29.162-35.356-35.356z" fill="#b9c9d9"/><path d="m406.188 304.984-119.562-136.529-39.051 39.051 49.881 78.165 78.164 49.881z" fill="#b9c9d9"/><path d="m247.575 207.506-39.051 39.051 136.529 119.562 30.567-30.567z" fill="#e6ecf2"/></g></svg>